<svg xmlns="http://www.w3.org/2000/svg" viewBox="0 0 96.97 61.53" width="200"><defs><style>.cls-1{fill:#171b1d;}.cls-2{font-size:12px;fill:#161a1c;font-family:Lato-Bold, Lato;font-weight:700;}</style></defs><title>orbit</title><g id="Layer_2" data-name="Layer 2"><g id="Layer_1-2" data-name="Layer 1"><path class="cls-1" d="M64,18.17a1.91,1.91,0,1,0,2-1.83A1.91,1.91,0,0,0,64,18.17Z"/><path class="cls-1" d="M78,8.7c-1-2.87-5-3.27-14.52-1.44A21.15,21.15,0,0,0,26.41,20c-12.46,6.45-13,9.86-12.24,11.86.66,1.84,2.74,2.74,6.42,2.74a39,39,0,0,0,5.82-.53c1.22-.18,2.52-.43,3.86-.71A21.15,21.15,0,0,0,67.1,29.24a1.9,1.9,0,1,0-3.51-1.46,17.35,17.35,0,0,1-29.24,4.68c4.37-1.09,9.15-2.55,14-4.3s9.3-3.6,13.4-5.55a1.9,1.9,0,0,0-1.64-3.43,141.15,141.15,0,0,1-13,5.4,134.93,134.93,0,0,1-15,4.53,17.14,17.14,0,0,1-2-7.94A17.37,17.37,0,0,1,61.23,10.5l.07.07a1.37,1.37,0,0,0,.17.17l.09.08.21.15.09,0,.26.11.06,0,.3.06h.4l.23,0c7.56-1.52,10.2-1.33,11.1-1.1-.37.57-1.44,1.82-4.56,3.85a1.9,1.9,0,1,0,2.08,3.18C76.87,13.78,78.86,11.11,78,8.7ZM17.91,30.55c.53-.89,2.7-3.06,8.69-6.31a21,21,0,0,0,1.68,5.69C22.65,31,19.11,31,17.91,30.55Z"/><text class="cls-2" transform="translate(0 59.37)">orbit-components</text></g></g></svg>